<?xml version="1.0" encoding="utf-8"?>
<!-- Generator: Adobe Illustrator 14.0.0, SVG Export Plug-In . SVG Version: 6.00 Build 43363)  -->
<!DOCTYPE svg PUBLIC "-//W3C//DTD SVG 1.1//EN" "http://www.w3.org/Graphics/SVG/1.1/DTD/svg11.dtd">
<svg version="1.1" id="圖層_1" xmlns="http://www.w3.org/2000/svg" xmlns:xlink="http://www.w3.org/1999/xlink" x="0px" y="0px"
	 width="384.094px" height="63.638px" viewBox="0 0 384.094 63.638" enable-background="new 0 0 384.094 63.638"
	 xml:space="preserve">
<g>
	<g>
		<g>
			<path fill="#347CB3" d="M0.617,58.644c0.085-0.834,0.15-1.521,0.192-2.061c0.043-0.54,0.084-1.23,0.124-2.072
				c0.04-0.84,0.075-1.77,0.105-2.789c0.031-1.018,0.055-2.2,0.074-3.547c0.8,0.014,1.44,0.02,1.921,0.02
				c0.437,0,1.065-0.006,1.884-0.02c-0.106,1.291-0.182,2.427-0.229,3.404s-0.076,2.013-0.088,3.106
				c-0.025,1.941-0.038,3.261-0.038,3.958c-0.731-0.014-1.361-0.021-1.89-0.021C2.15,58.623,1.465,58.63,0.617,58.644z
				 M1.199,46.862c0.037-0.813,0.055-1.457,0.055-1.928c0-0.137-0.003-0.321-0.009-0.555c0.744,0.015,1.369,0.021,1.874,0.021
				c0.695,0,1.304-0.007,1.827-0.021c-0.019,0.213-0.031,0.391-0.037,0.533l-0.055,1.271c-0.012,0.192-0.019,0.418-0.019,0.678
				c-0.609-0.014-1.193-0.021-1.753-0.021C2.503,46.841,1.875,46.849,1.199,46.862z"/>
			<path fill="#347CB3" d="M6.477,58.644c0.177-1.552,0.313-3.266,0.407-5.143c0.095-1.876,0.151-3.651,0.169-5.326
				c0.739,0.014,1.377,0.02,1.913,0.02c0.622,0,1.22-0.006,1.793-0.02l-0.092,1.395c0.203-0.253,0.378-0.453,0.526-0.601
				c0.147-0.146,0.331-0.29,0.549-0.431c0.218-0.14,0.451-0.254,0.697-0.344c0.246-0.088,0.515-0.158,0.808-0.21
				c0.292-0.051,0.598-0.077,0.918-0.077c0.443,0,0.875,0.054,1.296,0.159c0.421,0.106,0.774,0.257,1.057,0.451
				c0.283,0.195,0.52,0.438,0.711,0.729c0.19,0.29,0.317,0.604,0.378,0.938c0.061,0.335,0.092,0.68,0.092,1.035
				c0,0.26-0.025,0.82-0.075,1.682l-0.159,3.712c-0.031,0.731-0.046,1.408-0.046,2.03c-0.621-0.014-1.202-0.021-1.743-0.021
				c-0.731,0-1.398,0.007-2.001,0.021c0.056-0.622,0.115-1.547,0.177-2.773c0.062-1.228,0.093-2.09,0.093-2.59
				c0-0.771-0.134-1.311-0.402-1.614c-0.268-0.305-0.605-0.456-1.012-0.456c-0.357,0-0.694,0.13-1.012,0.389
				c-0.317,0.261-0.562,0.638-0.734,1.134c-0.172,0.495-0.294,1.311-0.365,2.445c-0.071,1.135-0.119,2.29-0.144,3.466
				c-0.615-0.014-1.215-0.021-1.799-0.021C7.864,58.623,7.197,58.63,6.477,58.644z"/>
			<path fill="#347CB3" d="M19.342,58.448c-0.024-0.3-0.049-0.616-0.074-0.948c-0.025-0.331-0.064-0.787-0.12-1.368l-0.074-0.738
				c0.595,0.26,1.108,0.452,1.538,0.579c0.43,0.126,0.825,0.189,1.188,0.189c0.301,0,0.545-0.03,0.732-0.093
				c0.188-0.061,0.324-0.149,0.41-0.266s0.129-0.236,0.129-0.359c0-0.109-0.033-0.217-0.097-0.323
				c-0.064-0.105-0.21-0.251-0.438-0.436c-0.503-0.41-0.946-0.782-1.33-1.118c-0.384-0.334-0.672-0.632-0.865-0.892
				s-0.34-0.54-0.441-0.841c-0.102-0.301-0.152-0.611-0.152-0.934c0-0.566,0.146-1.097,0.438-1.589
				c0.292-0.492,0.723-0.85,1.292-1.071c0.569-0.223,1.263-0.334,2.081-0.334c0.855,0,1.947,0.123,3.276,0.369l0.147,2.871
				c-0.744-0.328-1.461-0.492-2.15-0.492c-0.486,0-0.838,0.056-1.057,0.167c-0.218,0.111-0.327,0.281-0.327,0.511
				c0,0.075,0.012,0.146,0.037,0.215s0.069,0.141,0.134,0.215c0.064,0.076,0.145,0.152,0.24,0.231
				c0.095,0.078,0.328,0.261,0.697,0.548s0.658,0.523,0.867,0.708c0.345,0.301,0.607,0.579,0.789,0.836
				c0.182,0.256,0.32,0.529,0.416,0.82c0.095,0.29,0.143,0.597,0.143,0.917c0,0.486-0.106,0.932-0.319,1.339
				c-0.212,0.406-0.532,0.747-0.959,1.021c-0.428,0.273-0.891,0.463-1.389,0.568c-0.498,0.106-1.012,0.159-1.541,0.159
				c-0.357,0-0.804-0.034-1.343-0.103S20.056,58.62,19.342,58.448z"/>
			<path fill="#347CB3" d="M28.266,63.442c0.117-1.401,0.215-2.799,0.295-4.193c0.142-2.386,0.238-4.388,0.291-6.004
				c0.052-1.617,0.078-3.218,0.078-4.805c1.249-0.211,2.228-0.354,2.935-0.425c0.708-0.072,1.415-0.108,2.123-0.108
				c0.886,0,1.701,0.104,2.446,0.309s1.343,0.567,1.795,1.086c0.453,0.521,0.792,1.139,1.02,1.856s0.342,1.47,0.342,2.256
				c0,0.718-0.093,1.413-0.277,2.087c-0.185,0.673-0.467,1.28-0.849,1.82c-0.381,0.54-0.819,0.939-1.313,1.199
				c-0.495,0.26-1.047,0.39-1.655,0.39c-0.301,0-0.613-0.032-0.936-0.098c-0.322-0.064-0.628-0.159-0.917-0.282
				c-0.289-0.123-0.53-0.247-0.724-0.374c-0.194-0.126-0.435-0.309-0.724-0.548l-0.103,2.86c-0.043,1.313-0.065,2.304-0.065,2.974
				c-0.715-0.014-1.328-0.021-1.839-0.021C29.744,63.422,29.104,63.429,28.266,63.442z M32.52,51.056
				c-0.049,0.308-0.083,0.559-0.102,0.754c-0.019,0.194-0.037,0.458-0.056,0.789c-0.019,0.332-0.028,0.597-0.028,0.795
				c0,0.561,0.079,1.03,0.235,1.41c0.157,0.379,0.375,0.673,0.655,0.882c0.28,0.208,0.58,0.313,0.9,0.313
				c0.338,0,0.649-0.107,0.932-0.323c0.283-0.215,0.508-0.538,0.674-0.969s0.25-0.916,0.25-1.456c0-0.731-0.174-1.319-0.521-1.764
				c-0.348-0.444-0.854-0.667-1.518-0.667C33.523,50.819,33.049,50.898,32.52,51.056z"/>
			<path fill="#347CB3" d="M40.899,58.644c0.085-0.834,0.15-1.521,0.192-2.061c0.043-0.54,0.084-1.23,0.124-2.072
				c0.04-0.84,0.075-1.77,0.105-2.789c0.031-1.018,0.055-2.2,0.074-3.547c0.8,0.014,1.44,0.02,1.921,0.02
				c0.437,0,1.065-0.006,1.884-0.02c-0.106,1.291-0.182,2.427-0.229,3.404s-0.076,2.013-0.088,3.106
				c-0.025,1.941-0.038,3.261-0.038,3.958c-0.731-0.014-1.361-0.021-1.89-0.021C42.433,58.623,41.748,58.63,40.899,58.644z
				 M41.481,46.862c0.037-0.813,0.055-1.457,0.055-1.928c0-0.137-0.003-0.321-0.009-0.555c0.744,0.015,1.369,0.021,1.874,0.021
				c0.695,0,1.304-0.007,1.827-0.021c-0.019,0.213-0.031,0.391-0.037,0.533l-0.055,1.271c-0.012,0.192-0.019,0.418-0.019,0.678
				c-0.609-0.014-1.193-0.021-1.753-0.021C42.785,46.841,42.157,46.849,41.481,46.862z"/>
			<path fill="#347CB3" d="M46.843,58.644l0.286-4.553l0.092-2.615c0.006-0.471,0.009-0.953,0.009-1.445
				c0-0.499-0.006-1.117-0.019-1.855c0.745,0.014,1.335,0.02,1.772,0.02c0.511,0,1.098-0.006,1.763-0.02l-0.039,1.158
				c0.24-0.301,0.437-0.524,0.591-0.672c0.154-0.146,0.33-0.28,0.526-0.399c0.197-0.12,0.403-0.209,0.619-0.267
				c0.215-0.059,0.44-0.088,0.674-0.088c0.222,0,0.468,0.035,0.739,0.104c0.006,0.745,0.021,1.36,0.046,1.846l0.064,1.578
				c-0.338-0.108-0.655-0.164-0.95-0.164c-0.369,0-0.687,0.061-0.955,0.18c-0.267,0.12-0.504,0.301-0.71,0.544
				c-0.206,0.242-0.37,0.545-0.493,0.907s-0.209,0.937-0.258,1.723c-0.049,0.786-0.074,1.686-0.074,2.697
				c0,0.355,0.012,0.796,0.037,1.322c-0.597-0.014-1.198-0.021-1.801-0.021C48.167,58.623,47.526,58.63,46.843,58.644z"/>
			<path fill="#347CB3" d="M54.917,58.644c0.085-0.834,0.15-1.521,0.192-2.061c0.043-0.54,0.084-1.23,0.124-2.072
				c0.04-0.84,0.075-1.77,0.105-2.789c0.031-1.018,0.055-2.2,0.074-3.547c0.8,0.014,1.44,0.02,1.921,0.02
				c0.437,0,1.065-0.006,1.884-0.02c-0.106,1.291-0.182,2.427-0.229,3.404s-0.076,2.013-0.088,3.106
				c-0.025,1.941-0.038,3.261-0.038,3.958c-0.731-0.014-1.361-0.021-1.89-0.021C56.451,58.623,55.766,58.63,54.917,58.644z
				 M55.499,46.862c0.037-0.813,0.056-1.457,0.056-1.928c0-0.137-0.003-0.321-0.009-0.555c0.744,0.015,1.369,0.021,1.874,0.021
				c0.695,0,1.304-0.007,1.827-0.021c-0.019,0.213-0.031,0.391-0.037,0.533l-0.055,1.271c-0.012,0.192-0.019,0.418-0.019,0.678
				c-0.609-0.014-1.193-0.021-1.753-0.021C56.803,46.841,56.175,46.849,55.499,46.862z"/>
			<path fill="#347CB3" d="M60.778,58.644c0.177-1.552,0.313-3.266,0.407-5.143c0.095-1.876,0.151-3.651,0.169-5.326
				c0.739,0.014,1.377,0.02,1.913,0.02c0.622,0,1.22-0.006,1.793-0.02l-0.092,1.395c0.203-0.253,0.378-0.453,0.526-0.601
				c0.147-0.146,0.331-0.29,0.549-0.431c0.218-0.14,0.451-0.254,0.697-0.344c0.246-0.088,0.515-0.158,0.808-0.21
				c0.292-0.051,0.598-0.077,0.918-0.077c0.443,0,0.875,0.054,1.296,0.159c0.421,0.106,0.774,0.257,1.057,0.451
				c0.283,0.195,0.52,0.438,0.711,0.729c0.19,0.29,0.317,0.604,0.378,0.938C71.969,50.52,72,50.864,72,51.22
				c0,0.26-0.025,0.82-0.075,1.682l-0.159,3.712c-0.031,0.731-0.046,1.408-0.046,2.03c-0.621-0.014-1.202-0.021-1.743-0.021
				c-0.731,0-1.398,0.007-2.001,0.021c0.056-0.622,0.115-1.547,0.177-2.773c0.062-1.228,0.093-2.09,0.093-2.59
				c0-0.771-0.134-1.311-0.402-1.614c-0.268-0.305-0.605-0.456-1.012-0.456c-0.357,0-0.694,0.13-1.012,0.389
				c-0.317,0.261-0.562,0.638-0.734,1.134c-0.172,0.495-0.294,1.311-0.365,2.445c-0.071,1.135-0.119,2.29-0.144,3.466
				c-0.615-0.014-1.215-0.021-1.799-0.021C62.165,58.623,61.498,58.63,60.778,58.644z"/>
			<path fill="#347CB3" d="M74.454,59.915c0.794,0.301,1.492,0.511,2.095,0.631c0.603,0.119,1.129,0.18,1.578,0.18
				c0.326,0,0.622-0.04,0.886-0.118c0.264-0.079,0.477-0.177,0.637-0.292c0.16-0.117,0.297-0.264,0.411-0.441
				s0.202-0.376,0.263-0.595c0.061-0.219,0.104-0.472,0.129-0.759s0.046-0.684,0.064-1.189c-0.24,0.239-0.447,0.431-0.623,0.574
				s-0.392,0.282-0.651,0.415c-0.258,0.134-0.54,0.236-0.844,0.308c-0.305,0.072-0.626,0.107-0.964,0.107
				c-0.781,0-1.486-0.201-2.113-0.604s-1.095-0.967-1.403-1.692c-0.308-0.724-0.461-1.507-0.461-2.348
				c0-0.991,0.166-1.887,0.498-2.687s0.807-1.477,1.424-2.03c0.618-0.554,1.295-0.937,2.033-1.148s1.574-0.318,2.508-0.318
				c0.535,0,1.142,0.036,1.821,0.108c0.679,0.071,1.612,0.228,2.799,0.466l-0.218,3.385l-0.191,3.711
				c-0.012,0.268-0.018,0.486-0.018,0.656l-0.073,3.333c-0.012,0.424-0.059,0.827-0.138,1.21c-0.068,0.349-0.182,0.673-0.341,0.975
				c-0.16,0.3-0.357,0.563-0.591,0.789c-0.258,0.246-0.547,0.441-0.867,0.584c-0.326,0.15-0.71,0.273-1.153,0.369
				c-0.48,0.096-0.981,0.145-1.504,0.145c-0.295,0-0.658-0.016-1.089-0.047c-0.431-0.03-0.872-0.076-1.324-0.139
				c-0.452-0.061-0.843-0.126-1.172-0.194s-0.746-0.168-1.25-0.298l-0.064-1.354C74.541,61.347,74.51,60.783,74.454,59.915z
				 M80.785,51.046c-0.38-0.082-0.721-0.123-1.022-0.123c-0.552,0-1.029,0.118-1.431,0.354s-0.713,0.589-0.934,1.058
				c-0.221,0.47-0.332,0.958-0.332,1.465c0,0.37,0.058,0.712,0.175,1.027s0.31,0.563,0.58,0.745c0.27,0.182,0.555,0.272,0.856,0.272
				c0.442,0,0.834-0.179,1.178-0.535c0.344-0.355,0.58-0.842,0.708-1.459C80.692,53.234,80.766,52.299,80.785,51.046z"/>
			<path fill="#347CB3" d="M90.881,58.644l0.165-2.206l0.357-7.665l0.101-4.125c0.856,0.014,1.5,0.02,1.931,0.02
				c0.561,0,1.18-0.006,1.857-0.02l-0.211,3.147l-0.339,7.752l-0.073,3.097c-0.659-0.007-1.253-0.01-1.783-0.01L90.881,58.644z"/>
			<path fill="#347CB3" d="M96.695,58.644c0.085-0.834,0.15-1.521,0.192-2.061c0.043-0.54,0.084-1.23,0.124-2.072
				c0.04-0.84,0.075-1.77,0.105-2.789c0.031-1.018,0.055-2.2,0.074-3.547c0.8,0.014,1.44,0.02,1.921,0.02
				c0.437,0,1.065-0.006,1.884-0.02c-0.106,1.291-0.182,2.427-0.229,3.404s-0.076,2.013-0.088,3.106
				c-0.025,1.941-0.038,3.261-0.038,3.958c-0.731-0.014-1.361-0.021-1.89-0.021C98.229,58.623,97.543,58.63,96.695,58.644z
				 M97.277,46.862c0.037-0.813,0.055-1.457,0.055-1.928c0-0.137-0.003-0.321-0.009-0.555c0.744,0.015,1.369,0.021,1.874,0.021
				c0.695,0,1.304-0.007,1.827-0.021c-0.019,0.213-0.031,0.391-0.037,0.533l-0.055,1.271c-0.012,0.192-0.019,0.418-0.019,0.678
				c-0.609-0.014-1.193-0.021-1.753-0.021C98.581,46.841,97.953,46.849,97.277,46.862z"/>
			<path fill="#347CB3" d="M103.054,58.644c0.117-1.313,0.258-3.821,0.424-7.526h-1.126c0.019-0.212,0.045-0.663,0.079-1.354
				s0.054-1.189,0.06-1.497h1.311c-0.006-0.273-0.009-0.509-0.009-0.707c0-0.629,0.029-1.121,0.087-1.477s0.167-0.658,0.323-0.908
				c0.157-0.249,0.378-0.472,0.665-0.666c0.286-0.195,0.609-0.326,0.969-0.395s0.734-0.104,1.122-0.104
				c0.356,0,0.743,0.026,1.158,0.077c0.416,0.052,0.912,0.163,1.491,0.333c0.019,1.088,0.058,1.99,0.12,2.707
				c-0.609-0.246-1.157-0.369-1.643-0.369c-0.332,0-0.592,0.086-0.779,0.257s-0.281,0.485-0.281,0.943l0.009,0.308h2.122
				c-0.049,0.786-0.099,1.736-0.147,2.851h-1.919l-0.305,7.526c-0.732-0.014-1.36-0.021-1.883-0.021
				C104.371,58.623,103.755,58.63,103.054,58.644z"/>
			<path fill="#347CB3" d="M119.268,55.547c-0.08,0.41-0.234,1.401-0.461,2.974c-0.714,0.157-1.313,0.262-1.799,0.313
				c-0.486,0.052-0.979,0.077-1.477,0.077c-0.732,0-1.406-0.057-2.021-0.169c-0.615-0.112-1.146-0.313-1.592-0.6
				c-0.446-0.286-0.82-0.644-1.121-1.07s-0.531-0.934-0.688-1.521c-0.157-0.587-0.235-1.191-0.235-1.813
				c0-0.874,0.157-1.729,0.471-2.565c0.313-0.837,0.718-1.491,1.213-1.962c0.495-0.472,1.066-0.806,1.712-1.004
				s1.308-0.298,1.984-0.298c0.701,0,1.37,0.091,2.007,0.272c0.637,0.181,1.177,0.497,1.62,0.948
				c0.443,0.451,0.758,0.961,0.946,1.527c0.188,0.568,0.281,1.18,0.281,1.836c0,0.39-0.04,0.824-0.12,1.303l-6.469,0.01
				c-0.006,0.109-0.009,0.208-0.009,0.296c0,0.735,0.237,1.276,0.71,1.624c0.474,0.347,1.052,0.521,1.735,0.521
				c0.406,0,0.869-0.053,1.389-0.159C117.864,55.979,118.505,55.8,119.268,55.547z M113.593,52.235h3.045
				c0.006-0.116,0.009-0.216,0.009-0.298c0-0.355-0.057-0.659-0.171-0.913c-0.114-0.252-0.277-0.437-0.489-0.553
				c-0.212-0.116-0.451-0.175-0.715-0.175c-0.185,0-0.363,0.032-0.535,0.098c-0.172,0.064-0.328,0.16-0.466,0.287
				c-0.139,0.126-0.254,0.271-0.346,0.436s-0.16,0.323-0.203,0.477C113.679,51.748,113.636,51.962,113.593,52.235z"/>
			<path fill="#347CB3" d="M121.243,58.448c-0.024-0.3-0.049-0.616-0.074-0.948c-0.025-0.331-0.065-0.787-0.12-1.368l-0.074-0.738
				c0.595,0.26,1.108,0.452,1.538,0.579c0.43,0.126,0.825,0.189,1.188,0.189c0.301,0,0.545-0.03,0.732-0.093
				c0.188-0.061,0.324-0.149,0.41-0.266s0.129-0.236,0.129-0.359c0-0.109-0.033-0.217-0.097-0.323
				c-0.064-0.105-0.21-0.251-0.438-0.436c-0.503-0.41-0.946-0.782-1.33-1.118c-0.384-0.334-0.672-0.632-0.865-0.892
				s-0.34-0.54-0.441-0.841c-0.102-0.301-0.152-0.611-0.152-0.934c0-0.566,0.146-1.097,0.438-1.589
				c0.292-0.492,0.723-0.85,1.292-1.071c0.569-0.223,1.263-0.334,2.081-0.334c0.855,0,1.947,0.123,3.276,0.369l0.147,2.871
				c-0.744-0.328-1.461-0.492-2.15-0.492c-0.486,0-0.838,0.056-1.057,0.167c-0.218,0.111-0.328,0.281-0.328,0.511
				c0,0.075,0.013,0.146,0.037,0.215s0.069,0.141,0.134,0.215c0.064,0.076,0.145,0.152,0.24,0.231
				c0.095,0.078,0.327,0.261,0.696,0.548s0.659,0.523,0.868,0.708c0.345,0.301,0.607,0.579,0.789,0.836
				c0.182,0.256,0.32,0.529,0.416,0.82c0.095,0.29,0.143,0.597,0.143,0.917c0,0.486-0.106,0.932-0.318,1.339
				c-0.212,0.406-0.532,0.747-0.959,1.021c-0.428,0.273-0.891,0.463-1.389,0.568c-0.498,0.106-1.012,0.159-1.541,0.159
				c-0.357,0-0.804-0.034-1.343-0.103S121.957,58.62,121.243,58.448z"/>
			<path fill="#347CB3" d="M137.31,55.629c-0.111,0.574-0.206,1.135-0.286,1.682l-0.203,1.251c-0.609,0.15-1.084,0.246-1.426,0.287
				s-0.672,0.062-0.992,0.062c-0.523,0-0.987-0.05-1.394-0.148c-0.406-0.1-0.744-0.28-1.015-0.544
				c-0.271-0.263-0.455-0.565-0.554-0.907c-0.098-0.342-0.147-0.704-0.147-1.087c0-0.068,0.003-0.189,0.009-0.364
				c0.006-0.174,0.027-0.562,0.064-1.163l0.202-3.549h-1.438c0.03-0.471,0.058-1.093,0.083-1.865l0.028-0.954h1.529
				c0.037-0.314,0.083-1.001,0.138-2.062l1.58-0.358c0.29-0.062,0.905-0.219,1.848-0.472c-0.043,0.896-0.074,1.859-0.092,2.892
				h2.104c-0.049,1.422-0.074,2.362-0.074,2.819h-2.123l-0.111,2.564c-0.012,0.383-0.019,0.629-0.019,0.738
				c0,0.328,0.032,0.602,0.097,0.82c0.064,0.219,0.178,0.376,0.341,0.471c0.163,0.097,0.343,0.145,0.541,0.145
				c0.147,0,0.301-0.013,0.461-0.036C136.621,55.825,136.904,55.752,137.31,55.629z"/>
			<path fill="#347CB3" d="M137.725,63.329c-0.191-1.634-0.32-2.648-0.388-3.045c0.388,0.205,0.731,0.345,1.03,0.42
				c0.298,0.075,0.556,0.113,0.771,0.113c0.228,0,0.441-0.034,0.642-0.103s0.359-0.152,0.476-0.251
				c0.117-0.1,0.245-0.252,0.383-0.457c0.139-0.205,0.242-0.381,0.31-0.527c0.068-0.147,0.136-0.357,0.203-0.631l-1.736-5.834
				l-1.487-4.84c0.917,0.014,1.561,0.02,1.931,0.02c0.431,0,1.019-0.006,1.764-0.02c0.117,0.526,0.334,1.436,0.651,2.727
				c0.317,1.293,0.547,2.305,0.688,3.035c0.08,0.404,0.157,0.917,0.231,1.539l0.193-0.82c0.062-0.219,0.132-0.469,0.212-0.749
				c0.08-0.28,0.182-0.615,0.305-1.005l0.599-1.866l0.996-2.86c0.769,0.014,1.349,0.02,1.743,0.02c0.344,0,0.959-0.006,1.844-0.02
				l-1.779,4.471l-3.218,8.295c-0.209,0.465-0.41,0.834-0.601,1.107c-0.178,0.246-0.373,0.461-0.582,0.646
				c-0.197,0.17-0.409,0.313-0.637,0.43c-0.308,0.157-0.646,0.28-1.016,0.369c-0.406,0.096-0.819,0.145-1.237,0.145
				c-0.191,0-0.443-0.016-0.757-0.047c-0.314-0.03-0.568-0.062-0.762-0.092C138.302,63.468,138.045,63.411,137.725,63.329z"/>
			<path fill="#347CB3" d="M149.648,58.644l0.165-2.206l0.357-7.665l0.101-4.125c0.856,0.014,1.5,0.02,1.931,0.02
				c0.561,0,1.18-0.006,1.857-0.02l-0.211,3.147l-0.339,7.752l-0.073,3.097c-0.659-0.007-1.253-0.01-1.783-0.01L149.648,58.644z"/>
			<path fill="#347CB3" d="M164.654,55.547c-0.08,0.41-0.234,1.401-0.461,2.974c-0.714,0.157-1.313,0.262-1.799,0.313
				c-0.486,0.052-0.979,0.077-1.477,0.077c-0.732,0-1.406-0.057-2.021-0.169c-0.615-0.112-1.146-0.313-1.592-0.6
				c-0.446-0.286-0.82-0.644-1.121-1.07s-0.531-0.934-0.688-1.521c-0.157-0.587-0.235-1.191-0.235-1.813
				c0-0.874,0.157-1.729,0.471-2.565c0.313-0.837,0.718-1.491,1.213-1.962c0.495-0.472,1.066-0.806,1.712-1.004
				s1.308-0.298,1.984-0.298c0.701,0,1.37,0.091,2.007,0.272c0.637,0.181,1.177,0.497,1.62,0.948
				c0.443,0.451,0.758,0.961,0.946,1.527c0.188,0.568,0.281,1.18,0.281,1.836c0,0.39-0.04,0.824-0.12,1.303l-6.469,0.01
				c-0.006,0.109-0.009,0.208-0.009,0.296c0,0.735,0.237,1.276,0.71,1.624c0.474,0.347,1.052,0.521,1.735,0.521
				c0.406,0,0.869-0.053,1.389-0.159C163.25,55.979,163.891,55.8,164.654,55.547z M158.979,52.235h3.045
				c0.006-0.116,0.009-0.216,0.009-0.298c0-0.355-0.057-0.659-0.171-0.913c-0.114-0.252-0.277-0.437-0.489-0.553
				c-0.212-0.116-0.451-0.175-0.715-0.175c-0.185,0-0.363,0.032-0.535,0.098c-0.172,0.064-0.328,0.16-0.466,0.287
				c-0.139,0.126-0.254,0.271-0.346,0.436s-0.16,0.323-0.203,0.477C159.064,51.748,159.021,51.962,158.979,52.235z"/>
		</g>
	</g>
	<g>
		<path fill="#FFFFFF" d="M348.877,56.095v2.549h-9.137c0.098-0.964,0.395-1.876,0.891-2.739c0.494-0.863,1.471-2.007,2.932-3.433
			c1.174-1.152,1.895-1.934,2.16-2.344c0.359-0.566,0.539-1.126,0.539-1.68c0-0.612-0.156-1.083-0.469-1.411
			s-0.744-0.493-1.295-0.493c-0.543,0-0.977,0.173-1.299,0.518c-0.32,0.345-0.506,0.918-0.557,1.719l-2.598-0.273
			c0.154-1.511,0.641-2.595,1.457-3.252s1.838-0.986,3.063-0.986c1.342,0,2.396,0.381,3.162,1.143
			c0.768,0.762,1.15,1.709,1.15,2.842c0,0.645-0.109,1.259-0.328,1.841c-0.221,0.582-0.568,1.193-1.045,1.831
			c-0.314,0.423-0.885,1.032-1.707,1.826s-1.344,1.321-1.563,1.582c-0.221,0.261-0.398,0.515-0.533,0.762H348.877z"/>
		<path fill="#FFFFFF" d="M355.997,44.269c1.318,0,2.348,0.495,3.09,1.484c0.885,1.172,1.326,3.115,1.326,5.83
			c0,2.708-0.445,4.655-1.336,5.84c-0.736,0.977-1.762,1.465-3.08,1.465c-1.322,0-2.391-0.536-3.199-1.606
			c-0.811-1.07-1.217-2.98-1.217-5.728c0-2.695,0.445-4.636,1.336-5.82C353.653,44.757,354.68,44.269,355.997,44.269z
			 M355.997,46.544c-0.314,0-0.596,0.106-0.844,0.317s-0.439,0.591-0.574,1.138c-0.18,0.71-0.27,1.904-0.27,3.584
			s0.08,2.833,0.24,3.462c0.162,0.629,0.363,1.047,0.607,1.255s0.525,0.313,0.84,0.313c0.316,0,0.598-0.106,0.846-0.317
			c0.246-0.211,0.438-0.591,0.574-1.138c0.18-0.703,0.27-1.895,0.27-3.574s-0.08-2.833-0.242-3.462
			c-0.16-0.629-0.363-1.049-0.607-1.26S356.313,46.544,355.997,46.544z"/>
		<path fill="#FFFFFF" d="M369.778,58.644h-2.605V48.302c-0.953,0.938-2.076,1.631-3.369,2.08v-2.49
			c0.682-0.234,1.42-0.679,2.219-1.333c0.797-0.654,1.344-1.418,1.641-2.29h2.115V58.644z"/>
		<path fill="#FFFFFF" d="M374.625,47.071v-2.549h8.914v1.992c-0.736,0.762-1.484,1.855-2.244,3.281
			c-0.762,1.426-1.342,2.94-1.74,4.546s-0.596,3.039-0.588,4.302h-2.516c0.043-1.979,0.432-3.997,1.164-6.055
			c0.734-2.058,1.713-3.896,2.938-5.518H374.625z"/>
	</g>
</g>
<g>
	<path fill="#999999" stroke="#999999" d="M0.617,0.93h1.672c2.787,0,5.155,1.054,7.106,3.16c1.951,2.107,2.926,4.64,2.926,7.6
		c0,2.987-0.925,5.467-2.774,7.44c-1.849,1.974-4.206,3.12-7.068,3.44v5.04H0.617V0.93z M10.497,11.69
		c0-2.453-0.748-4.48-2.242-6.08c-1.495-1.6-3.42-2.533-5.776-2.8v17.76c2.254,0,4.154-0.866,5.7-2.6
		C9.724,16.237,10.497,14.144,10.497,11.69z"/>
	<path fill="#999999" stroke="#999999" d="M31.245,27.61l-6.536-5.76v5.76h-1.862V0.93h1.406c2.812,0,5.219,1.014,7.22,3.04
		c2.001,2.027,3.002,4.534,3.002,7.52c0,2.4-0.621,4.48-1.862,6.24c-1.241,1.76-2.964,3.08-5.168,3.96l6.764,5.92H31.245z
		 M32.613,11.65c0-2.426-0.741-4.446-2.223-6.06c-1.482-1.613-3.376-2.54-5.681-2.78v17.48c2.28-0.267,4.142-1.16,5.586-2.68
		C31.84,16.01,32.613,14.024,32.613,11.65z"/>
	<path fill="#999999" stroke="#999999" d="M70.119,14.331c0,3.76-1.267,6.974-3.8,9.64c-2.534,2.667-5.586,4-9.158,4
		c-3.572,0-6.638-1.306-9.196-3.92c-2.559-2.613-3.838-5.813-3.838-9.6c0-3.92,1.279-7.213,3.838-9.88c2.558-2.666,5.7-4,9.424-4
		c3.546,0,6.555,1.354,9.025,4.06C68.884,7.337,70.119,10.57,70.119,14.331z M45.951,14.291c0,3.227,1.089,5.987,3.268,8.28
		c2.178,2.294,4.813,3.44,7.904,3.44c3.065,0,5.694-1.126,7.885-3.38c2.191-2.253,3.287-4.98,3.287-8.18
		c0-3.413-1.102-6.253-3.306-8.52c-2.204-2.266-4.915-3.4-8.132-3.4c-2.99,0-5.555,1.167-7.695,3.5
		C47.021,8.364,45.951,11.117,45.951,14.291z"/>
	<path fill="#999999" stroke="#999999" d="M80.645,0.93h1.672c3.597,0,6.618,1.26,9.063,3.78c2.444,2.52,3.667,5.66,3.667,9.42
		c0,3.76-1.254,6.947-3.762,9.56c-2.508,2.614-5.548,3.92-9.12,3.92h-1.52V0.93z M93.223,14.09c0-3.066-1.051-5.72-3.154-7.96
		c-2.103-2.24-4.624-3.36-7.562-3.36v22.84c3.015,0,5.554-1.113,7.619-3.34C92.19,20.044,93.223,17.317,93.223,14.09z"/>
	<path fill="#999999" stroke="#999999" d="M114.274,22.811c0,1.52-0.342,2.733-1.026,3.64c-0.76,1.014-1.85,1.52-3.268,1.52
		c-1.419,0-2.508-0.486-3.268-1.46c-0.76-0.973-1.14-2.233-1.14-3.78V0.93h1.862v21.72c0,0.987,0.184,1.794,0.551,2.42
		c0.367,0.627,1.007,0.94,1.919,0.94c0.912,0,1.558-0.3,1.938-0.9c0.38-0.6,0.57-1.406,0.57-2.42V0.93h1.862V22.811z"/>
	<path fill="#999999" stroke="#999999" d="M124.8,14.25c0-3.84,1.209-7.02,3.629-9.54c2.419-2.52,5.415-3.78,8.987-3.78v1.92
		c-3.015,0-5.567,1.086-7.657,3.26c-2.09,2.174-3.135,4.887-3.135,8.14s1.039,5.974,3.116,8.16c2.077,2.187,4.636,3.28,7.676,3.28
		v1.92c-3.521,0-6.504-1.286-8.949-3.86C126.022,21.177,124.8,18.01,124.8,14.25z"/>
	<path fill="#999999" stroke="#999999" d="M148.892,27.61V2.89h-3.002V0.93h7.828v1.96h-2.964v24.72H148.892z"/>
	<path fill="#999999" stroke="#999999" d="M179.861,0.93h1.672c2.787,0,5.155,1.054,7.106,3.16c1.951,2.107,2.926,4.64,2.926,7.6
		c0,2.987-0.925,5.467-2.774,7.44c-1.849,1.974-4.206,3.12-7.068,3.44v5.04h-1.862V0.93z M189.741,11.69
		c0-2.453-0.748-4.48-2.242-6.08c-1.495-1.6-3.42-2.533-5.776-2.8v17.76c2.254,0,4.154-0.866,5.7-2.6
		C188.968,16.237,189.741,14.144,189.741,11.69z"/>
	<path fill="#999999" stroke="#999999" d="M227.057,14.331c0,3.76-1.268,6.974-3.799,9.64c-2.535,2.667-5.586,4-9.158,4
		s-6.639-1.306-9.197-3.92c-2.559-2.613-3.838-5.813-3.838-9.6c0-3.92,1.279-7.213,3.838-9.88c2.559-2.666,5.701-4,9.424-4
		c3.547,0,6.557,1.354,9.025,4.06C225.823,7.337,227.057,10.57,227.057,14.331z M202.889,14.291c0,3.227,1.089,5.987,3.268,8.28
		c2.18,2.294,4.814,3.44,7.904,3.44c3.064,0,5.693-1.126,7.885-3.38c2.191-2.253,3.287-4.98,3.287-8.18
		c0-3.413-1.102-6.253-3.305-8.52c-2.205-2.266-4.916-3.4-8.133-3.4c-2.99,0-5.555,1.167-7.695,3.5
		C203.959,8.364,202.889,11.117,202.889,14.291z"/>
	<path fill="#999999" stroke="#999999" d="M245.944,27.61l-6.535-5.76v5.76h-1.863V0.93h1.406c2.813,0,5.219,1.014,7.221,3.04
		c2,2.027,3.002,4.534,3.002,7.52c0,2.4-0.621,4.48-1.863,6.24c-1.24,1.76-2.963,3.08-5.168,3.96l6.766,5.92H245.944z
		 M247.311,11.65c0-2.426-0.74-4.446-2.223-6.06c-1.482-1.613-3.375-2.54-5.68-2.78v17.48c2.279-0.267,4.141-1.16,5.586-2.68
		C246.54,16.01,247.311,14.024,247.311,11.65z"/>
	<path fill="#999999" stroke="#999999" d="M261.333,27.61V2.89h-3.002V0.93h7.828v1.96h-2.963v24.72H261.333z"/>
	<path fill="#999999" stroke="#999999" d="M276.342,27.61V9.45h-0.986l-0.646-1.96h1.633V0.93h6.348v1.96h-4.484v4.6h4.256
		l0.684,1.96h-4.939v18.16H276.342z"/>
	<path fill="#999999" stroke="#999999" d="M318.372,14.331c0,3.76-1.268,6.974-3.801,9.64c-2.533,2.667-5.586,4-9.158,4
		s-6.637-1.306-9.195-3.92c-2.559-2.613-3.838-5.813-3.838-9.6c0-3.92,1.279-7.213,3.838-9.88c2.559-2.666,5.699-4,9.424-4
		c3.547,0,6.555,1.354,9.025,4.06C317.135,7.337,318.372,10.57,318.372,14.331z M294.204,14.291c0,3.227,1.088,5.987,3.268,8.28
		c2.178,2.294,4.813,3.44,7.904,3.44c3.064,0,5.693-1.126,7.885-3.38c2.191-2.253,3.287-4.98,3.287-8.18
		c0-3.413-1.102-6.253-3.307-8.52c-2.203-2.266-4.914-3.4-8.131-3.4c-2.99,0-5.555,1.167-7.695,3.5
		C295.274,8.364,294.204,11.117,294.204,14.291z"/>
	<path fill="#999999" stroke="#999999" d="M328.858,27.61V0.93h1.863v24.72h4.75v1.96H328.858z"/>
	<path fill="#999999" stroke="#999999" d="M345.122,27.61V0.93h1.863v26.68H345.122z"/>
	<path fill="#999999" stroke="#999999" d="M383.54,14.331c0,3.76-1.266,6.974-3.799,9.64c-2.533,2.667-5.586,4-9.158,4
		s-6.639-1.306-9.197-3.92c-2.559-2.613-3.838-5.813-3.838-9.6c0-3.92,1.279-7.213,3.838-9.88c2.559-2.666,5.701-4,9.426-4
		c3.545,0,6.555,1.354,9.023,4.06C382.305,7.337,383.54,10.57,383.54,14.331z M359.372,14.291c0,3.227,1.09,5.987,3.268,8.28
		c2.18,2.294,4.814,3.44,7.904,3.44c3.066,0,5.693-1.126,7.885-3.38c2.191-2.253,3.287-4.98,3.287-8.18
		c0-3.413-1.102-6.253-3.305-8.52c-2.205-2.266-4.916-3.4-8.133-3.4c-2.99,0-5.555,1.167-7.695,3.5
		C360.442,8.364,359.372,11.117,359.372,14.291z"/>
</g>
</svg>
